<svg width="64" height="64" viewBox="0 0 64 64" fill="none" xmlns="http://www.w3.org/2000/svg">
<path d="M38.8775 6.20252C38.5412 6.03864 38.1656 5.97237 37.7935 6.01126C37.4214 6.05015 37.0677 6.19264 36.7725 6.42252L19.3125 20H8C6.93913 20 5.92172 20.4215 5.17157 21.1716C4.42143 21.9217 4 22.9392 4 24V40C4 41.0609 4.42143 42.0783 5.17157 42.8284C5.92172 43.5786 6.93913 44 8 44H19.3125L36.7725 57.5775C37.068 57.8072 37.4219 57.9494 37.7942 57.9879C38.1664 58.0264 38.542 57.9597 38.8782 57.7954C39.2145 57.631 39.4978 57.3757 39.6961 57.0583C39.8944 56.7409 39.9997 56.3743 40 56V8.00002C40.0001 7.62534 39.8949 7.25818 39.6964 6.94038C39.4979 6.62258 39.2142 6.36691 38.8775 6.20252ZM8 24H18V40H8V24ZM36 51.91L22 41.0225V22.9775L36 12.09V51.91Z" fill="#F8F8FC"/>
</svg>
